<?xml version="1.0" encoding="UTF-8"?>
<svg id="background-image" xmlns="http://www.w3.org/2000/svg" version="1.1" viewBox="0 0 1920 1080">
  <defs>
    <style>
      .cls-1 {
        fill: #555741;
      }

      .cls-1, .cls-2, .cls-3, .cls-4, .cls-5, .cls-6, .cls-7 {
        stroke-width: 0px;
      }

      .cls-1, .cls-5 {
        fill-rule: evenodd;
      }

      .cls-2 {
        fill: none;
      }

      .cls-3 {
        fill: #ddded5;
      }

      .cls-4 {
        fill: #c7c9bb;
      }

      .cls-5 {
        fill: #b1b3a2;
      }

      .cls-6 {
        fill: #848872;
      }

      .cls-7 {
        fill: #6c6f56;
      }
    </style>
  </defs>
  <g id="back-road">
    <polygon class="cls-2" points="639.6 490.5 647.7 491.2 654.2 475.2 646.1 474.4 639.6 490.5"/>
    <polygon class="cls-3" points="655.8 450.4 663.9 451.2 670.4 435.1 662.3 434.4 655.8 450.4"/>
    <path class="cls-6" d="M664.7,199.5l-246.3,343.9,29.5-3.5,225.4-339.8,9,.7-224.1,337.8,170-19.9,1.8-4.4,8.1.7-1.1,2.6,132-15.4,65.6-289-169.8-13.9ZM647.7,491.2l-8.1-.7,6.5-16,8.1.7-6.5,16ZM663.9,451.2l-8.1-.7,6.5-16,8.1.7-6.5,16ZM680.1,411.1l-8.1-.7,6.5-16,8.1.7-6.5,16ZM696.3,371.1l-8.1-.7,6.5-16,8.1.7-6.5,16ZM712.5,331l-8.1-.7,6.5-16,8.1.7-6.5,16ZM728.7,291l-8.1-.7,6.5-16,8.1.7-6.5,16ZM744.9,251l-8.1-.7,6.5-16,8.1.7-6.5,16ZM761.1,210.9l-8.1-.7,1.4-3.4,8,.8-1.3,3.3Z"/>
    <polygon class="cls-6" points="837.7 213.6 841.9 214.2 776.7 501.5 792.8 499.6 848.8 214.5 837.7 213.6"/>
    <polygon class="cls-3" points="837.7 213.6 834.5 213.4 768.9 502.4 776.7 501.5 841.9 214.2 837.7 213.6"/>
    <polygon class="cls-3" points="673.2 200.2 447.8 540 458.1 538.8 682.2 201 673.2 200.2"/>
    <polygon class="cls-3" points="753 210.2 761.1 210.9 762.4 207.6 754.4 206.8 753 210.2"/>
    <polygon class="cls-3" points="736.8 250.2 744.9 251 751.4 235 743.3 234.2 736.8 250.2"/>
    <polygon class="cls-3" points="688.2 370.3 696.3 371.1 702.8 355.1 694.7 354.3 688.2 370.3"/>
    <polygon class="cls-3" points="629.9 514.5 628.1 518.9 636.9 517.9 638 515.2 629.9 514.5"/>
    <polygon class="cls-3" points="672 410.4 680.1 411.1 686.6 395.1 678.5 394.4 672 410.4"/>
    <polygon class="cls-3" points="704.4 330.3 712.5 331 719 315 710.9 314.3 704.4 330.3"/>
    <polygon class="cls-3" points="720.6 290.3 728.7 291 735.2 275 727.1 274.2 720.6 290.3"/>
    <polygon class="cls-3" points="639.6 490.5 647.7 491.2 654.2 475.2 646.1 474.4 639.6 490.5"/>
    <polygon class="cls-3" points="834.5 213.2 834.5 213.4 837.7 213.6 834.5 213.2"/>
  </g>
  <g id="mid-road">
    <path class="cls-7" d="M859.9,491.5l7.7-.9,47.1,171.1,287.1,34.5-180.5-224.1,9-1.1,182.4,226.5,26.3,3.2-200.5-230.6-185.8,21.7,39.8,167.2,14,1.7-46.6-169.2ZM1031.6,647.4l6.8,13.9-8.5.6-6.8-13.9,8.5-.6ZM1014.6,612.7l6.8,13.9-8.5.6-6.8-13.9,8.5-.6ZM997.6,578.1l6.8,13.9-8.5.6-6.8-13.9,8.5-.6ZM980.6,543.4l6.8,13.9-8.5.6-6.8-13.9,8.5-.6ZM963.5,508.7l6.8,13.9-8.5.6-6.8-13.9,8.5-.6ZM949.5,480.7l3.8,7.3-8.5.6-3.4-6.9,8.1-1Z"/>
    <polygon class="cls-4" points="970.3 522.6 963.5 508.7 955 509.4 961.8 523.3 970.3 522.6"/>
    <polygon class="cls-4" points="987.4 557.3 980.6 543.4 972 544 978.8 557.9 987.4 557.3"/>
    <polygon class="cls-4" points="867.7 490.5 859.9 491.5 906.5 660.6 914.8 661.6 867.7 490.5"/>
    <polygon class="cls-4" points="1030.4 471 1021.4 472.1 1201.8 696.1 1212.8 697.4 1030.4 471"/>
    <polygon class="cls-4" points="1004.4 591.9 997.6 578.1 989.1 578.7 995.9 592.6 1004.4 591.9"/>
    <polygon class="cls-4" points="953.3 488 949.5 480.7 941.4 481.7 944.8 488.6 953.3 488"/>
    <polygon class="cls-4" points="1038.4 661.2 1031.6 647.4 1023.1 648 1029.9 661.9 1038.4 661.2"/>
    <polygon class="cls-4" points="1021.4 626.6 1014.6 612.7 1006.1 613.4 1012.9 627.2 1021.4 626.6"/>
  </g>
  <g id="front-road">
    <polygon class="cls-1" points="300.2 1080.6 655 629.4 895.7 660.5 805.3 1080.6 300.2 1080.6"/>
    <path class="cls-5" d="M770.3,644.7l10.5,1.4-4.4,9.9-11-.9,4.9-10.4h0ZM665.5,630.8l11.7,1.6-326.4,448.2h-12.8l327.5-449.8h0ZM876.3,658.8l10,1.3-104.7,420.4h-10.3l105-421.8h0ZM600,1053.2l8.8-19.9-11-.9-8.8,19.9,11,.9h0ZM622,1003.6l8.8-19.9-11-.9-8.8,19.9,11,.9h0ZM644.1,953.9l8.8-19.9-11-.9-8.8,19.9,11,.9h0ZM666.1,904.3l8.8-19.9-11-.9-8.8,19.9,11,.9h0ZM688.2,854.6l8.8-19.9-11-.9-8.8,19.9,11,.9h0ZM710.2,805l-11-.9,8.8-19.9,11,.9-8.8,19.9h0ZM732.3,755.3l-11-.9,8.8-19.9,11,.9-8.8,19.9h0ZM754.3,705.7l-11-.9,8.8-19.9,11,.9-8.8,19.9Z"/>
  </g>
</svg>