<?xml version="1.0" encoding="UTF-8"?>
<svg id="Capa_1" data-name="Capa 1" xmlns="http://www.w3.org/2000/svg" version="1.1" viewBox="0 0 800 800">
  <defs>
    <style>
      .cls-1 {
        fill: #010002;
        stroke-width: 0px;
      }
    </style>
  </defs>
  <path class="cls-1" d="M622.1,604.5c-58.2,58.1-135.5,90.2-217.7,90.2-169.6,0-307.6-137.9-307.8-307.5l62.8,62.8c4.2,4.1,10.9,4.1,15,0,4.1-4.2,4.1-10.9,0-15l-83.2-83.2L8,435c-4.2,4.1-4.2,10.9,0,15,2.1,2.1,4.8,3.1,7.5,3.1s5.5-1,7.5-3.1l52.8-52.9c.9,30.4,7.7,124.4,79.2,206.8,91.8,105.8,219.9,111.6,249.3,112,0,0,75.5,1,176.7-45,15.4-7,27.9-17,33-21,9-7.2,14.9-13.3,19.3-21.8,1.7-3.3,9.4-18.2,3.7-23.6-4.1-3.9-12.8-.8-14.9,0Z"/>
  <path class="cls-1" d="M534,715.9"/>
  <path class="cls-1" d="M858,589.9"/>
  <path class="cls-1" d="M796.9,336.2c-4.1-4.1-10.8-4.1-15,0l-52.8,52.8c-2.8-88.4-40.5-168-99.6-225.6-8.5-8.3-96.1-90.8-228.9-93.1,0,0-69.3-1.2-162.6,39.6-5.4,2.4-36.7,16.4-59,46-3.4,4.5-15.4,20.4-11.2,25.8.7.9,6.4,8.6,15,0,58.2-58.1,135.5-90.2,217.7-90.2,169.6,0,307.6,137.9,307.8,307.5l-62.8-62.8c-4.1-4.1-10.9-4.1-15,0-4.1,4.2-4.1,10.9,0,15l83.2,83.2,83.2-83.2c0-5,0-10,0-15Z"/>
  <path class="cls-1" d="M-59,160.9"/>
</svg>